<svg width="15" height="15" viewBox="0 0 15 15" fill="none" xmlns="http://www.w3.org/2000/svg">
<path d="M0.357197 0.493389C0.747721 0.102865 1.38089 0.102865 1.77141 0.493389L7.29568 6.01766L13.0209 0.292444C13.4113 -0.0979087 14.0446 -0.0977741 14.4351 0.292444C14.8256 0.682942 14.8256 1.31613 14.4351 1.70666L8.7099 7.43187L14.4993 13.2213C14.8896 13.6119 14.8898 14.2451 14.4993 14.6355C14.1089 15.0258 13.4756 15.0257 13.0851 14.6355L7.29568 8.84609L1.70719 14.4346C1.31667 14.8251 0.683502 14.8251 0.292977 14.4346C-0.0972664 14.044 -0.0974534 13.4108 0.292977 13.0204L5.88147 7.43187L0.357197 1.9076C-0.0332622 1.51714 -0.0331324 0.883929 0.357197 0.493389Z" fill="#707070"/>
</svg>
